<svg xmlns="http://www.w3.org/2000/svg" width="145" height="156" viewBox="0 0 145 156">
  <g fill="none" fill-rule="evenodd" transform="translate(0 2)">
    <path fill="#2A9CCE" d="M72.9677886,126.000137 C76.5037333,126.006454 80.0314999,126.058043 83.5279171,126.16122 C90.0115275,126.352836 96.3542016,126.716064 102.330224,127.238269 C109.761405,127.887341 116.608124,128.780671 122.511088,129.867721 C128.510008,130.972144 133.522103,132.273973 137.257866,133.702668 C140.267413,134.853942 142.443065,136.085757 143.700859,137.352316 C145.175918,138.837338 145.395092,140.369211 144.357289,141.86792 C143.3691,143.295036 141.228887,144.691093 138.031516,145.991869 C134.349728,147.489525 129.279569,148.857156 123.137259,150.0158 C116.673003,151.234455 109.034916,152.218328 100.71341,152.898458 C91.9532848,153.614385 82.4789375,153.988141 72.9677886,153.999722 C63.4391931,154.011303 53.9245003,153.66071 45.1030392,152.96426 C36.7341005,152.303607 29.0322235,151.337106 22.4889129,150.132138 C16.2773612,148.98876 11.125966,147.633237 7.35094766,146.145057 C4.07615742,144.853756 1.84898383,143.465068 0.769199919,142.04269 C-0.366467786,140.546087 -0.244341254,139.013161 1.13394389,137.524454 C2.36229691,136.197358 4.59628559,134.906057 7.7421342,133.702668 C11.4124727,132.299241 16.314708,131.017416 22.1748733,129.925627 C27.9371738,128.852263 34.6148781,127.963672 41.8694122,127.309336 C47.9405729,126.761336 54.4048283,126.378631 61.0225598,126.174907 C64.3575955,126.072256 67.7231628,126.016982 71.0988165,126.002243 C71.7219889,126.000663 72.3446161,125.999611 72.9677886,126.000137 L72.9677886,126.000137 Z M72.1189001,128.632221 C69.2440198,128.637485 66.3756819,128.679072 63.5329688,128.763299 C58.2760758,128.918592 53.1334039,129.212859 48.2881428,129.636098 C42.5740932,130.135141 37.2836699,130.81264 32.6687591,131.632271 C27.9758835,132.466115 23.9868712,133.445777 20.9069927,134.524405 C18.0659152,135.519333 16.0088464,136.596381 14.8279265,137.709227 C13.5008909,138.959993 13.2768105,140.253926 14.1526867,141.519432 C14.9383311,142.65386 16.6208421,143.763547 19.1298881,144.800588 C22.1337101,146.042405 26.3094561,147.175254 31.3856127,148.13228 C36.6365084,149.12247 42.8401545,149.922097 49.59964,150.474835 C56.7102392,151.055999 64.3993039,151.358162 72.1189001,151.367638 C79.8540348,151.377113 87.577175,151.092848 94.7390237,150.527477 C101.536674,149.991058 107.791569,149.205644 113.106254,148.227035 C118.239658,147.282117 122.48301,146.158743 125.564251,144.925349 C128.134906,143.895677 129.886385,142.791781 130.744542,141.661038 C131.685571,140.4208 131.564807,139.15003 130.382524,137.917688 C129.374163,136.866433 127.585881,135.843605 125.090193,134.889212 C122.054749,133.727936 117.980957,132.669838 113.106254,131.772824 C108.482893,130.921608 103.148308,130.216209 97.3609277,129.694004 C92.4385197,129.249708 87.1971652,128.939122 81.8315033,128.773827 C79.121003,128.690653 76.3854232,128.645908 73.6419379,128.634327 C73.1343495,128.632748 72.6267611,128.631695 72.1189001,128.632221 L72.1189001,128.632221 Z M73.1449811,130.3336 C75.4795606,130.342023 77.8040538,130.375714 80.1130085,130.444148 C84.7919813,130.582596 89.3640933,130.850015 93.6526973,131.236932 C98.7522978,131.69702 103.438903,132.324509 107.465808,133.083602 C111.489168,133.842695 114.846285,134.731287 117.350424,135.703579 C119.452472,136.520051 120.948522,137.393377 121.779146,138.290917 C122.712269,139.299006 122.811497,140.33552 122.075739,141.349926 C121.361517,142.333799 119.852927,143.295562 117.618121,144.190471 C115.000579,145.239093 111.395393,146.193487 107.033731,146.996273 C102.516139,147.828011 97.197638,148.495508 91.4192538,148.951385 C85.4276935,149.424633 78.9718887,149.667312 72.5000003,149.667312 C66.028112,149.667312 59.571762,149.424633 53.5802016,148.951385 C47.8020901,148.495508 42.4830435,147.828011 37.9657248,146.996273 C33.6043356,146.193487 29.999422,145.239093 27.3821523,144.190471 C25.1470732,143.295562 23.6384834,142.333799 22.9242613,141.349926 C22.1887761,140.33552 22.2877313,139.299006 23.2208543,138.290917 C24.0514783,137.393377 25.5475283,136.520051 27.6490315,135.703579 C30.0637565,134.76603 33.2725767,133.905865 37.1075678,133.165197 C41.2290657,132.369254 46.0664213,131.713339 51.3473034,131.236932 C55.6359074,130.850015 60.208292,130.582596 64.8872648,130.444148 C67.1959469,130.375714 69.5207127,130.342023 71.8550196,130.3336 C72.5013634,130.332548 72.5000003,130.332548 73.1449811,130.3336 L73.1449811,130.3336 Z M72.0278504,132.965685 C70.3262571,132.971475 68.6314789,132.996217 66.9484226,133.046226 C63.550688,133.146246 60.2309182,133.34102 57.1169642,133.6216 C53.7996478,133.921131 50.7216775,134.317523 48.0125403,134.793404 C44.9836387,135.325085 42.4192542,135.954679 40.4646844,136.649023 C38.7620007,137.253876 37.5254696,137.907159 36.8096118,138.582026 C35.9727179,139.370598 35.8445941,140.187597 36.4230595,140.984592 C36.9415521,141.699466 38.0368744,142.397495 39.6599578,143.04762 C41.5668219,143.811451 44.1947231,144.506321 47.3719212,145.091696 C50.6608868,145.697076 54.5326795,146.182959 58.7392298,146.515128 C63.0973478,146.859404 67.7926768,147.035227 72.5000003,147.035227 C77.2075965,147.035227 81.9026529,146.859404 86.2610435,146.515128 C90.468139,146.182959 94.3391138,145.697076 97.6283521,145.09117 C100.805823,144.506321 103.433451,143.811451 105.340043,143.04762 C106.963126,142.397495 108.058449,141.699466 108.576941,140.984592 C109.155407,140.187071 109.026738,139.370598 108.190389,138.582026 C107.475076,137.907159 106.238,137.253876 104.535316,136.649023 C102.790106,136.028904 100.558571,135.460374 97.9434822,134.967121 C95.0102646,134.414384 91.5975368,133.956927 87.8830365,133.6216 C84.7690825,133.34102 81.4493127,133.146246 78.0518507,133.046226 C76.3685218,132.996217 74.6737436,132.971475 72.9718776,132.965685 C72.4991825,132.964632 72.5000003,132.964632 72.0278504,132.965685 L72.0278504,132.965685 Z M72.8661073,134.508612 C74.1915073,134.513876 75.5111826,134.532827 76.8221346,134.571782 C79.4819306,134.650218 82.0812084,134.802353 84.5191048,135.022395 C87.3119314,135.274549 89.8877653,135.614614 92.1187554,136.025219 C94.5119447,136.466357 96.5041337,136.986983 97.9767398,137.558671 C99.17129,138.022971 100.021814,138.519382 100.493964,139.02948 C101.023906,139.601695 101.080607,140.190756 100.662433,140.766129 C100.256253,141.32571 99.3989142,141.872131 98.1283076,142.381176 C96.6420713,142.976554 94.5953615,143.518237 92.1187554,143.97464 C89.5527352,144.446836 86.5314665,144.825856 83.2498612,145.084853 C79.8455841,145.353852 76.1771539,145.491773 72.5000003,145.491773 C68.8228468,145.491773 65.1549618,145.353852 61.7509573,145.084853 C58.4688068,144.825856 55.4475381,144.446836 52.8815179,143.97464 C50.4046392,143.518237 48.3579294,142.976554 46.8716931,142.381176 C45.6010865,141.872131 44.7432021,141.32571 44.3375676,140.766129 C43.920211,140.190229 43.9760948,139.601695 44.5060368,139.02948 C44.9781867,138.519382 45.8287107,138.022971 47.0232609,137.558671 C48.3944583,137.026464 50.2165425,136.537949 52.3941022,136.117342 C54.734679,135.66515 57.482526,135.292973 60.4817137,135.022395 C62.9196101,134.802353 65.5183427,134.650218 68.1781387,134.571782 C69.488818,134.532827 70.808766,134.513876 72.134166,134.508612 C72.5013634,134.508086 72.5000003,134.508086 72.8661073,134.508612 L72.8661073,134.508612 Z M72.307542,137.140697 C71.614583,137.143329 70.9246226,137.153331 70.2395691,137.173334 C68.8607387,137.214395 67.5140756,137.292831 66.2505567,137.407063 C63.4408287,137.66027 61.0759901,138.086141 59.5624935,138.608347 C58.8869811,138.841549 58.3826639,139.093177 58.0713503,139.353753 C57.6616267,139.695924 57.5842072,140.053361 57.8363658,140.401322 C58.0380927,140.679797 58.4559944,140.951954 59.0723517,141.20674 C59.8285548,141.518905 60.8802606,141.804223 62.1582275,142.045322 C63.4803562,142.294844 65.0410134,142.495935 66.7426067,142.634909 C68.500629,142.778621 70.3987697,142.854425 72.3069968,142.859163 C74.2239472,142.8639 76.1400798,142.797572 77.9239995,142.66123 C79.6435846,142.530679 81.2301391,142.336431 82.5830721,142.093226 C83.8899351,141.857918 84.9765341,141.577864 85.7717196,141.268857 C86.4461415,141.007228 86.9076599,140.725595 87.1371923,140.436066 C87.3939852,140.11232 87.3620905,139.779624 87.0425988,139.457983 C86.7923484,139.20583 86.3632699,138.96052 85.7717196,138.731002 C84.3105628,138.163524 81.8672144,137.697119 78.9113707,137.421803 C77.0265875,137.246506 74.9736078,137.154383 72.884917,137.141223 C72.6924587,137.140697 72.5002729,137.14017 72.307542,137.140697 L72.307542,137.140697 Z"/>
    <path fill="#FFFFFF" stroke="#0A4B5B" stroke-width="4" d="M71.9222582,-1.42108547e-14 C65.5943411,-1.42108547e-14 59.6545447,1.10044741 54.1026854,3.30136335 C48.5508376,5.50230042 43.6855787,8.50099478 39.5067644,12.2975943 C35.32795,16.0941727 32.0446463,20.5784912 29.6567524,25.7506341 C27.2688588,30.9227982 26.0749299,36.4250141 26.0749299,42.2574509 C26.0749299,52.2716427 28.4627871,62.753371 33.2385749,73.7029526 C38.0143628,84.6525342 43.2676482,94.666557 48.998594,103.745359 C54.729533,112.82414 59.9828345,120.334675 64.7586131,126.277159 C69.5343918,132.219642 71.9222582,135.19084 71.9222582,135.19084 C71.9222582,135.19084 74.3101245,132.219642 79.0859032,126.277159 C83.8616818,120.334675 89.1149833,112.82414 94.8459223,103.745359 C100.576861,94.666557 105.830163,84.6525342 110.605941,73.7029526 C115.38172,62.753371 117.769586,52.2716427 117.769586,42.2574509 C117.769586,36.4250141 116.575653,30.9227982 114.187764,25.7506341 C111.799875,20.5784912 108.516564,16.0941727 104.33774,12.2975943 C100.15894,8.50099478 95.2936673,5.50230042 89.7418309,3.30136335 C84.1899716,1.10044741 78.2501752,-1.42108547e-14 71.9222582,-1.42108547e-14 Z M71.9222582,67.3492583 C65.81328,67.3492583 60.58856,65.1789861 56.247954,60.8384007 C51.9073686,56.4977947 49.7370964,51.2730747 49.7370964,45.1640966 C49.7370964,38.94793 51.9073686,33.669626 56.247954,29.3290406 C60.58856,24.9884346 65.81328,22.8181625 71.9222582,22.8181625 C78.0312363,22.8181625 83.2559563,24.9884346 87.5965623,29.3290406 C91.9371477,33.669626 94.1074199,38.94793 94.1074199,45.1640966 C94.1074199,51.2730747 91.9371477,56.4977947 87.5965623,60.8384007 C83.2559563,65.1789861 78.0312363,67.3492583 71.9222582,67.3492583 Z"/>
  </g>
</svg>
