<svg xmlns="http://www.w3.org/2000/svg" width="43" height="50" viewBox="0 0 43 50">
  <path fill="#FFFFFF" fill-rule="evenodd" d="M38.761903,26.4285696 C38.761903,24.8868968 38.4682586,23.2075963 37.8809515,21.390625 C37.2936505,19.5736536 36.7063495,17.793411 36.1190485,16.0498538 C35.5317413,14.3062905 35.238097,12.7738183 35.238097,11.4523818 L35.238097,10.5714303 L17.6190485,10.5714303 L17.6190485,11.4523818 C17.6190485,12.094745 17.5089303,12.7141558 17.2886878,13.310639 C17.0684515,13.9071222 16.728921,14.480653 16.2700902,15.03125 C15.8112593,15.581847 15.3891387,16.0406717 15.003722,16.4077363 C14.6182992,16.774801 14.1227705,17.2244496 13.5171113,17.7566946 C13.351931,17.903523 13.2234608,18.0136411 13.1316947,18.0870553 C11.645084,19.4084918 10.31449,20.4362593 9.13988182,21.1703886 C8.73610699,21.4273351 8.11210816,21.7760416 7.26785449,22.2165205 C7.21279849,22.2348725 7.00632616,22.3312266 6.64843749,22.505583 C6.29054883,22.6799393 5.96019494,22.8497015 5.65736598,23.0148818 C5.35453701,23.1800621 5.02877175,23.3635883 4.6800597,23.5654788 C4.33134765,23.7673631 4.05146423,23.9646595 3.84040205,24.1573678 C3.62933925,24.3500761 3.5238097,24.5198383 3.5238097,24.6666666 C3.5238097,25.9697511 3.8036925,27.0296346 4.36346735,27.8463541 C4.92324158,28.6630736 5.81795029,29.0714303 7.04761816,29.0714303 C7.83680966,29.0714303 8.61222482,28.9337841 9.37388216,28.6584795 C10.1355457,28.383181 10.7595445,28.0803606 11.2459095,27.75 C11.7322683,27.4196393 12.2369792,27.116819 12.760042,26.8415205 C13.283111,26.5662158 13.7281717,26.4285696 14.0952363,26.4285696 L14.0952363,42.2857151 C14.0952363,43.2033774 14.4485308,44.0200858 15.1551322,44.7358631 C15.8617335,45.4516405 16.6830287,45.8095236 17.6190485,45.8095236 C18.5734203,45.8095236 19.3993035,45.4608171 20.0967288,44.763393 C20.794148,44.0659689 21.1428545,43.2400839 21.1428545,42.2857151 L21.1428545,33.1733613 C21.9871081,33.8157245 22.9322855,34.136903 23.9784235,34.136903 C25.2447978,34.136903 26.3368035,33.6505503 27.2544651,32.6778265 C27.8417661,33.0081871 28.4749471,33.1733613 29.1540205,33.1733613 C29.8330876,33.1733613 30.5075606,33.0127751 31.177458,32.6915905 C31.8473491,32.370412 32.3291138,31.9345273 32.6227705,31.3839303 C33.0632431,31.4573445 33.57713,31.4940485 34.1644371,31.4940485 C35.724462,31.4940485 36.8806996,31.0489878 37.6331871,30.1588541 C38.3856685,29.2687205 38.761903,28.0253046 38.761903,26.4285696 Z M35.238097,5.28571516 C35.238097,4.80853233 35.0637406,4.39558766 34.715028,4.046875 C34.3663153,3.69816233 33.9533768,3.52381216 33.4761878,3.52381216 C32.999005,3.52381216 32.5860603,3.69816233 32.2373538,4.046875 C31.8886411,4.39558766 31.7142848,4.80853233 31.7142848,5.28571516 C31.7142848,5.76289799 31.8886411,6.17584266 32.2373538,6.52455533 C32.5860603,6.87326799 32.999005,7.04761816 33.4761878,7.04761816 C33.9533768,7.04761816 34.3663153,6.87326799 34.715028,6.52455533 C35.0637406,6.17584266 35.238097,5.76289799 35.238097,5.28571516 Z M42.2857151,26.3184515 C42.2857151,28.9246143 41.5745381,31.0352115 40.1521595,32.6502985 C38.7297808,34.2653855 36.7338898,35.0637406 34.1644371,35.0453886 L34.0267848,35.0178545 C32.6319403,36.1374066 30.9985198,36.6971735 29.1264863,36.6971735 C28.7227176,36.6971735 28.328125,36.6696455 27.9427083,36.6145833 C26.9516325,37.1651803 25.8596268,37.5047108 24.6666666,37.6331871 L24.6666666,42.2857151 C24.6666666,44.2128071 23.9692536,45.8691645 22.574403,47.2548361 C21.1795585,48.6405077 19.51861,49.3333333 17.5915205,49.3333333 C15.7011288,49.3333333 14.0585385,48.6359197 12.6636878,47.2410715 C11.2688433,45.8462233 10.5714303,44.1944539 10.5714303,42.2857151 L10.5714303,31.9895833 C9.58035449,32.3933581 8.40575866,32.5952363 7.04761816,32.5952363 C4.82687385,32.5952363 3.09710411,31.8473553 1.85825901,30.3515625 C0.619413299,28.8557696 0,26.960827 0,24.6666666 C0,23.9692413 0.160588695,23.3314785 0.481770833,22.7533473 C0.802953033,22.1752223 1.2571897,21.6705115 1.84449378,21.2392086 C2.43179848,20.807912 3.00991793,20.4362593 3.57886878,20.1242568 C4.14782025,19.8122481 4.80852801,19.4727176 5.56101181,19.105653 C6.31349499,18.7385883 6.88243783,18.435768 7.26785449,18.1971735 C8.27728849,17.5548103 9.46105416,16.637161 10.8191947,15.4441947 C10.8742568,15.4074907 11.030255,15.2790205 11.2872015,15.058778 C11.544148,14.8385417 11.7414443,14.6641853 11.8790905,14.5357152 C12.0167428,14.4072388 12.2140392,14.2191247 12.4709795,13.9713542 C12.727926,13.7235837 12.9343983,13.5033473 13.0904027,13.310639 C13.246407,13.1179307 13.4115812,12.9114583 13.5859375,12.691222 C13.7602938,12.4709795 13.888764,12.2553312 13.9713542,12.0442708 C14.0539443,11.8332105 14.0952363,11.6359142 14.0952363,11.4523818 L14.0952363,3.52381216 C14.0952363,2.55108833 14.4393548,1.720611 15.1276042,1.03236783 C15.8158535,0.3441185 16.6463247,0 17.6190485,0 L35.238097,0 C36.2108208,0 37.041292,0.3441185 37.7295413,1.03236783 C38.4177845,1.720611 38.761903,2.55108833 38.761903,3.52381216 L38.761903,11.4523818 C38.761903,12.5352238 39.3033178,14.5815828 40.3861598,17.5915205 C41.6525341,21.078641 42.2857151,23.9875871 42.2857151,26.3184515 Z"/>
</svg>
