<svg xmlns="http://www.w3.org/2000/svg" width="135" height="135" viewBox="0 0 135 135">
  <path fill="#0A4B5B" fill-rule="evenodd" d="M49.3499088,106.864317 L42.6054318,113.773304 C39.6444162,116.624646 36.0802947,118.050297 31.912941,118.050297 C27.7455873,118.050297 24.1814658,116.624646 21.2204502,113.773304 C19.794789,112.347626 18.6981356,110.730065 17.9304668,108.920558 C17.1627981,107.111051 16.778969,105.164491 16.778969,103.080835 C16.778969,101.106817 17.1627981,99.2150866 17.9304668,97.4055794 C18.6981356,95.5960723 19.794789,93.9785112 21.2204502,92.5528542 L46.224404,67.7133896 C48.8564202,65.1910539 52.3108822,62.723569 56.5878954,60.3109138 C60.8649085,57.8982376 64.8128591,58.5013856 68.4318735,62.1203999 C70.0768704,63.6557375 72.0508457,64.4233957 74.3538625,64.4233957 C76.6568793,64.4233957 78.5760038,63.6009077 80.1113624,61.9558897 C81.7563594,60.3108928 82.5788473,58.3369175 82.5788473,56.0339007 C82.5788473,53.7309049 81.7563594,51.7569296 80.1113624,50.1119116 C74.0796718,44.1899015 66.9239929,41.7224377 58.6441363,42.7094358 C50.3642797,43.696434 42.3313042,48.0830434 34.5449361,55.8694115 L9.37648266,80.7088761 C6.4154734,83.7795511 4.11250082,87.2339921 2.46749544,91.0723464 C0.822490267,94.9107007 0,98.913481 0,103.080835 C0,107.357848 0.822490267,111.415458 2.46749544,115.253802 C4.11250082,119.092148 6.4154734,122.546605 9.37648266,125.617283 C12.4471598,128.68796 15.9564515,130.990932 19.9044632,132.52627 C23.8524664,134.061608 27.8552678,134.829266 31.912941,134.829266 C35.9706142,134.829266 39.9459796,134.061608 43.8391637,132.52627 C47.7323477,130.990932 51.2142246,128.68796 54.2848996,125.617283 L61.1938869,118.708295 C62.8388838,117.172958 63.6613928,115.253812 63.6613928,112.950816 C63.6613928,110.6478 62.8388838,108.673824 61.1938869,107.028827 C59.5488899,105.383809 57.5749146,104.561321 55.2718978,104.561321 C52.968881,104.561321 50.9949057,105.32898 49.3499088,106.864317 Z M125.513278,10.138496 C118.933249,3.6681466 111.585666,0.295929156 103.470298,0.0217594866 C95.3549518,-0.252410182 88.2815385,2.57148898 82.2498479,8.49349909 L73.6958637,17.0474833 C72.0508668,18.5828208 71.2283578,20.5019664 71.2283578,22.8049832 C71.2283578,25.1079789 72.0508668,27.0819542 73.6958637,28.7269722 C75.3408607,30.3719692 77.314836,31.1944571 79.6178528,31.1944571 C81.9208696,31.1944571 83.8948449,30.4267989 85.5398418,28.8914614 L93.9293369,20.3374772 C97.1096713,17.2668022 100.536719,16.1153148 104.210563,16.8829941 C107.884407,17.6506523 111.037284,19.350458 113.6693,21.9824741 C115.094957,23.4081522 116.191615,25.0257133 116.959294,26.8352204 C117.726953,28.6447276 118.110782,30.5912881 118.110782,32.6749649 C118.110782,34.6489613 117.726953,36.540692 116.959294,38.3501992 C116.191615,40.1597063 115.094957,41.7772674 113.6693,43.2029454 L87.0203286,69.6873859 C80.8789785,75.7190766 76.2181994,78.2139553 73.037865,77.1721274 C69.8575305,76.1302784 67.6642153,74.9513762 66.4578771,73.6353786 C64.8128802,72.1000411 62.8389049,71.3323829 60.5358881,71.3323829 C58.2328713,71.3323829 56.3137468,72.1548709 54.7783882,73.7998678 C53.1333912,75.4448858 52.3109033,77.4188611 52.3109033,79.7218569 C52.3109033,82.0248737 53.1333912,83.9440192 54.7783882,85.4793568 C57.5200638,88.3306918 60.4810373,90.4417625 63.6613928,91.8125898 C66.8417273,93.1834381 70.1316791,93.8688518 73.5313746,93.8688518 C77.5890478,93.8688518 81.7563173,92.8544387 86.0333515,90.8255916 C90.3103646,88.7967655 94.5324638,85.6987178 98.6998175,81.5313641 L125.513278,55.0469235 C128.474273,51.9762275 130.777248,48.5217865 132.422245,44.6834322 C134.067263,40.8450779 134.889751,36.8422976 134.889751,32.6749649 C134.889751,28.3979307 134.067263,24.3403207 132.422245,20.5019664 C130.777248,16.6636331 128.474273,13.2091711 125.513278,10.138496 Z"/>
</svg>
