<svg xmlns="http://www.w3.org/2000/svg" width="161" height="163" viewBox="0 0 161 163">
  <g fill="none" fill-rule="evenodd">
    <polygon fill="#FFFFFF" points="3 96 51 162 97 162 99 141 109 161 155 161 160 45 149 17 149 2 58 2 57 17 46 43 47 92 31 73"/>
    <rect width="20" height="15" x="57" y="2" fill="#2A9CCE"/>
    <rect width="20" height="15" x="127" y="2" fill="#2A9CCE"/>
    <rect width="31" height="15" x="87" y="2" fill="#2A9CCE"/>
    <g fill="#0A4B5B" fill-rule="nonzero">
      <rect width="4" height="8" x="112" y="35"/>
      <rect width="4" height="8" x="112" y="22"/>
      <path d="M111.491226,51.5514019 C111.495755,52.6568594 111.329804,53.7556014 111,54.8037383 L114.315778,56 C114.77095,54.5670562 115.002097,53.0641812 114.999986,51.5514019 L114.999986,48 L111.491226,48 L111.491226,51.5514019 Z"/>
      <path d="M150.093493,0 L55.2550486,0 L55.2550486,16.2584449 L44.3313388,44.2562141 L45.9311892,88.6855747 L31.0680628,70.1415976 L0,95.5248566 L48.5115931,161.874549 L48.5115931,163 L97.8833209,163 L99.6035901,144.958147 L107.275991,161.718717 L107.39641,163 L156.71653,163 L161,44.5678776 L161,44.2042702 L150.093493,16.2584449 L150.093493,0 Z M137.776365,18.3188868 L147.186238,18.3188868 L156.682124,42.6805821 C145.922808,41.4896818 137.77318,32.3474432 137.759162,21.4528362 L137.776365,18.3188868 Z M129.691099,3.46292755 L146.652954,3.46292755 L146.652954,14.8559592 L129.691099,14.8559592 L129.691099,3.46292755 Z M121.089753,3.46292755 L126.250561,3.46292755 L126.250561,19.9984066 L121.089753,19.9984066 L121.089753,3.46292755 Z M117.649215,14.8559592 L104.385939,14.8559592 L104.385939,3.46292755 L117.649215,3.46292755 L117.649215,14.8559592 Z M87.5100972,3.46292755 L100.9454,3.46292755 L100.9454,14.8559592 L87.5100972,14.8559592 L87.5100972,3.46292755 Z M78.9087509,3.46292755 L84.0695587,3.46292755 L84.0695587,19.9984066 L78.9087509,19.9984066 L78.9087509,3.46292755 Z M58.6955871,3.46292755 L75.4682124,3.46292755 L75.4682124,14.8559592 L58.6955871,14.8559592 L58.6955871,3.46292755 Z M67.2969334,18.3188868 L67.2969334,21.4528362 C67.2818836,32.2401401 59.2863751,41.3270287 48.6492147,42.6459528 L58.1278983,18.40546 L67.2969334,18.3188868 Z M11.026926,104.701615 L15.1555722,101.515721 L13.0568437,98.7626939 L8.99700823,101.913958 L4.78234854,96.1654982 L30.5863874,75.0243255 L46.1720269,94.4686637 L48.3911743,155.762481 L11.026926,104.701615 Z M51.9349289,159.589016 L47.8406881,46.1954536 C60.7219432,45.252702 70.7002399,34.4694448 70.7202693,21.4701508 L70.7202693,18.3188868 L75.4510097,18.3188868 L75.4510097,23.5132781 L87.4928945,23.5132781 L87.4928945,18.3188868 L100.928197,18.3188868 L100.928197,95.7845762 L94.7696335,159.589016 L51.9349289,159.589016 Z M100.291698,138.188124 L102.648467,113.75717 L106.295438,151.27799 L100.291698,138.188124 Z M153.39641,159.589016 L110.544503,159.589016 L104.385939,95.7845762 L104.385939,64.5143403 C106.447312,64.2362008 108.408869,63.4512298 110.097233,62.2288082 L108.084518,59.4238368 C107.000233,60.2003546 105.762064,60.7319202 104.454749,60.9821542 L104.454749,18.3188868 L117.718025,18.3188868 L117.718025,23.5132781 L129.75991,23.5132781 L129.75991,18.3188868 L134.404637,18.3188868 L134.404637,21.4528362 C134.41412,34.5401855 144.514699,45.3731368 157.490651,46.2127682 L153.39641,159.589016 Z"/>
      <polygon points="18 94.847 23.779 90 26 93.153 20.221 98"/>
      <polygon points="28 85.847 33.779 81 36 84.153 30.221 89"/>
    </g>
  </g>
</svg>
