<svg xmlns="http://www.w3.org/2000/svg" width="290" height="482" viewBox="0 0 290 482">
  <g fill="#2A9CCE" fill-rule="evenodd" transform="translate(-40 2)" opacity=".319">
    <path d="M173.254897,30.1176471 C173.254897,32.7320395 173.751627,35.176458 174.745098,37.4509829 C175.738569,39.7254977 177.084958,41.7124091 178.784316,43.4117672 C180.483664,45.1111153 182.470576,46.4575147 184.745101,47.4509754 C187.019615,48.4444461 189.464044,48.9411765 192.078426,48.9411765 C194.692819,48.9411765 197.137247,48.4444461 199.411762,47.4509754 C201.686287,46.4575147 203.673198,45.1111153 205.372547,43.4117672 C207.071905,41.7124091 208.418294,39.7254977 209.411765,37.4509829 C210.405235,35.176458 210.901956,32.7320395 210.901956,30.1176471 C210.901956,27.5032546 210.405235,25.0588361 209.411765,22.7843112 C208.418294,20.5097964 207.071905,18.522885 205.372547,16.8235269 C203.673198,15.1241788 201.686287,13.7777795 199.411762,12.7843187 C197.137247,11.790848 194.692819,11.2941176 192.078426,11.2941176 C189.464044,11.2941176 187.019615,11.790848 184.745101,12.7843187 C182.470576,13.7777795 180.483664,15.1241788 178.784316,16.8235269 C177.084958,18.522885 175.738569,20.5097964 174.745098,22.7843112 C173.751627,25.0588361 173.254897,27.5032546 173.254897,30.1176471 Z M192.078426,-1.88235294 L186.823529,8.70588737 L197.41176,8.70588737 L192.078426,-1.88235294 Z M214.666662,7.45098541 L203.45098,11.1372549 L210.980392,18.6666667 L214.666662,7.45098541 Z M180.705882,11.1372549 L169.490196,7.45098541 L173.176471,18.6666667 L180.705882,11.1372549 Z M170.58824,24.7058874 L160,30.0392207 L170.58824,35.2941176 L170.58824,24.7058874 Z M213.41176,35.5294067 L224,30.1960734 L213.41176,24.9411765 L213.41176,35.5294067 Z M192.078426,62.1176471 L197.333333,51.5294067 L186.745093,51.5294067 L192.078426,62.1176471 Z M203.45098,49.0980392 L214.666662,52.7843137 L210.980392,41.5686275 L203.45098,49.0980392 Z M169.490196,52.7843137 L180.705882,49.0980392 L173.176471,41.5686275 L169.490196,52.7843137 Z"/>
    <path d="M207.395349,192.819786 C208.100782,192.819786 208.711239,193.080381 209.226742,193.60156 C209.742254,194.122749 210,194.739929 210,195.45312 L205.27907,248.366667 C205.27907,249.134726 205.021324,249.765623 204.505811,250.259375 C203.990309,250.753127 203.352722,251 202.593018,251 L175.406977,251 C174.647283,251 174.009693,250.753127 173.494187,250.259375 C172.978679,249.765623 172.72093,249.134726 172.72093,248.366667 L168,195.45312 C168,194.739929 168.257749,194.122749 168.773256,193.60156 C169.288763,193.080381 169.899221,192.819786 170.604651,192.819786 L194.127902,192.819786 L196.895354,178.501047 L209.511628,172 L208.534884,175.373953 L199.174424,180.14688 L196.732553,192.819786 L207.395349,192.819786 Z M193.429204,210.990678 L203.988943,210.990678 L201.042041,245.362364 L177.957965,245.362364 L175.011062,210.990678 L190.809735,210.990678 L194.084071,195 L171,195 L175.829646,248 L203.170349,248 L208,195 L196.785403,195 L193.429204,210.990678 Z" transform="rotate(15 189 211.5)"/>
    <path d="M126.568422,302.068422 C125.942007,302.068422 124.976285,302.35553 123.671257,302.929737 C122.366219,303.503955 121.165596,304.052063 120.06936,304.574082 L115.058039,304.574082 C114.901435,301.389789 114.222832,298.388248 113.0222,295.56937 C111.821558,292.750482 110.203342,290.244852 108.167473,288.052389 L111.456162,284.7637 C112.604587,284.346096 113.896555,283.863235 115.332098,283.315117 C116.767641,282.766999 117.720303,282.258049 118.190115,281.788238 C118.920946,281.057407 119.286351,280.170002 119.286351,279.125964 C119.286351,278.081935 118.920946,277.194531 118.190115,276.46371 C117.459294,275.732879 116.571889,275.367473 115.527861,275.367473 C114.483822,275.367473 113.596417,275.732879 112.865586,276.46371 C112.395775,276.933521 111.899875,277.833985 111.377856,279.165122 C110.855836,280.496259 110.412134,281.73603 110.046718,282.884454 L106.523139,286.408044 C104.278478,284.372185 101.746739,282.75396 98.9278606,281.553327 C96.1089726,280.352695 93.107432,279.700181 89.9231386,279.595785 L89.9231386,274.897672 C90.4973558,273.801435 91.0846124,272.561665 91.6849285,271.17833 C92.2852447,269.794985 92.5854027,268.764026 92.5854027,268.085403 C92.5854027,267.041374 92.2199973,266.15396 91.4891763,265.423139 C90.7583554,264.692318 89.8709407,264.326912 88.8269122,264.326912 C87.7828837,264.326912 86.895469,264.692318 86.164648,265.423139 C85.4338271,266.15396 85.0684216,267.041374 85.0684216,268.085403 C85.0684216,268.711818 85.3424707,269.677539 85.8905889,270.982568 C86.4387071,272.287606 86.9998648,273.488228 87.574082,274.584464 L87.574082,279.595785 C84.3897885,279.752389 81.388248,280.430992 78.56937,281.631624 C75.750482,282.832266 73.2448517,284.450482 71.0523889,286.486351 L67.7636996,283.197662 C67.3460962,282.049238 66.8632354,280.757269 66.3151172,279.321726 C65.766999,277.886183 65.2580492,276.933521 64.7882379,276.46371 C64.057407,275.732879 63.1700023,275.367473 62.1259638,275.367473 C61.0819353,275.367473 60.1945306,275.732879 59.4637096,276.46371 C58.7328787,277.194531 58.3674732,278.081935 58.3674732,279.125964 C58.3674732,280.170002 58.7328787,281.057407 59.4637096,281.788238 C59.9335209,282.258049 60.8339851,282.75395 62.1651222,283.275969 C63.4962593,283.797988 64.73603,284.24169 65.8844543,284.607106 L69.4080442,288.130686 C67.3721852,290.323149 65.767009,292.815739 64.5924757,295.608518 C63.4179424,298.401297 62.7523889,301.389789 62.5957851,304.574082 L57.5844643,304.574082 C56.4882279,303.999865 55.2876107,303.438707 53.9825725,302.890589 C52.6775344,302.342471 51.7118208,302.068422 51.0854027,302.068422 C50.0413722,302.068422 49.1539595,302.433827 48.4231386,303.164648 C47.6923173,303.895469 47.3269122,304.782884 47.3269122,305.826912 C47.3269122,306.870941 47.6923173,307.758355 48.4231386,308.489176 C49.1539595,309.219997 50.0413722,309.585403 51.0854027,309.585403 C51.7640228,309.585403 52.7949867,309.285245 54.1783278,308.684929 C55.5616678,308.084612 56.8014355,307.497356 57.8976719,306.923139 L62.5957851,306.923139 C62.7001809,310.107432 63.352695,313.108973 64.5533273,315.927861 C65.7539595,318.746739 67.3721852,321.278478 69.4080442,323.523139 L65.8844543,327.046718 C64.73603,327.412134 63.4962593,327.855836 62.1651222,328.377856 C60.8339851,328.899875 59.9335209,329.395775 59.4637096,329.865586 C58.7328787,330.596417 58.3674732,331.483822 58.3674732,332.527861 C58.3674732,333.571889 58.7328787,334.459294 59.4637096,335.190115 C60.1945306,335.920946 61.0819353,336.286351 62.1259638,336.286351 C63.1700023,336.286351 64.057407,335.920946 64.7882379,335.190115 C65.2580492,334.720303 65.766999,333.767641 66.3151172,332.332098 C66.8632354,330.896555 67.3460962,329.604587 67.7636996,328.456162 L71.0523889,325.167473 C73.2448517,327.203342 75.750482,328.821558 78.56937,330.0222 C81.388248,331.222832 84.3897885,331.901435 87.574082,332.058039 L87.574082,337.06936 C87.0520627,338.165596 86.5039545,339.366214 85.9297373,340.671252 C85.3555302,341.97629 85.0684216,342.942003 85.0684216,343.568422 C85.0684216,344.612452 85.4338271,345.499865 86.164648,346.230686 C86.895469,346.961507 87.7828837,347.326912 88.8269122,347.326912 C89.8709407,347.326912 90.7583554,346.961507 91.4891763,346.230686 C92.2199973,345.499865 92.5854027,344.612452 92.5854027,343.568422 C92.5854027,342.889802 92.2852447,341.858838 91.6849285,340.475497 C91.0846124,339.092157 90.4973558,337.852389 89.9231386,336.756152 L89.9231386,332.058039 C93.107432,331.953643 96.1089726,331.301129 98.9278606,330.100497 C101.746739,328.899865 104.278478,327.281639 106.523139,325.24578 L110.046718,328.76937 C110.412134,329.917794 110.855836,331.157565 111.377856,332.488702 C111.899875,333.819839 112.395775,334.720303 112.865586,335.190115 C113.596417,335.920946 114.483822,336.286351 115.527861,336.286351 C116.571889,336.286351 117.459294,335.920946 118.190115,335.190115 C118.920946,334.459294 119.286351,333.571889 119.286351,332.527861 C119.286351,331.483822 118.920946,330.596417 118.190115,329.865586 C117.720303,329.395775 116.767641,328.886825 115.332098,328.338707 C113.896555,327.790589 112.604587,327.307728 111.456162,326.890125 L108.167473,323.601435 C110.203342,321.408973 111.834607,318.890293 113.061349,316.045306 C114.28808,313.200329 114.953643,310.15963 115.058039,306.923139 L119.756152,306.923139 C120.852389,307.497356 122.09216,308.084612 123.475495,308.684929 C124.85884,309.285245 125.889799,309.585403 126.568422,309.585403 C127.61245,309.585403 128.499865,309.219997 129.230686,308.489176 C129.961507,307.758355 130.326912,306.870941 130.326912,305.826912 C130.326912,304.782884 129.961507,303.895469 129.230686,303.164648 C128.499865,302.433827 127.61245,302.068422 126.568422,302.068422 Z M72.9316342,291.732573 L81.8580392,300.580691 C81.3882279,301.154898 81.0228224,301.781313 80.7618228,302.459936 C80.5008132,303.138549 80.3181105,303.843261 80.2137046,304.574082 L67.6071059,304.574082 C67.7637096,302.120609 68.2987583,299.797682 69.212292,297.605209 C70.1258157,295.412746 71.3655864,293.455224 72.9316342,291.732573 Z M67.6071059,306.923139 L80.1354077,306.923139 C80.2398036,307.706157 80.4355558,308.436968 80.7226644,309.115591 C81.009773,309.794214 81.3882279,310.446718 81.8580392,311.073134 L72.9316342,319.921252 C71.3655864,318.1986 70.1127662,316.228029 69.1731436,314.009457 C68.2335109,311.790895 67.7115017,309.428809 67.6071059,306.923139 Z M87.574082,327.046718 C85.0684116,326.890115 82.7063255,326.342007 80.4877637,325.402384 C78.2691919,324.462761 76.2986203,323.209941 74.5759688,321.643893 L83.5023839,312.717478 C84.076601,313.18729 84.7030061,313.565744 85.3816291,313.852853 C86.0602522,314.139962 86.7910631,314.335714 87.574082,314.44012 L87.574082,327.046718 Z M87.574082,297.213705 C86.7910631,297.31811 86.0602522,297.513863 85.3816291,297.800971 C84.7030061,298.08808 84.076601,298.466535 83.5023839,298.936346 L74.5759688,290.009931 C76.2986203,288.443883 78.2691919,287.191063 80.4877637,286.25144 C82.7063255,285.311818 85.0684116,284.76371 87.574082,284.607106 L87.574082,297.213705 Z M110.046718,304.574082 L97.4401197,304.574082 C97.3357139,303.791063 97.1399616,303.060252 96.8528531,302.381629 C96.5657445,301.703006 96.1872895,301.076601 95.7174782,300.502384 L104.643893,291.575969 C106.209941,293.29862 107.462761,295.269192 108.402384,297.487764 C109.342007,299.706326 109.890115,302.068412 110.046718,304.574082 Z M102.921252,289.931634 L94.0731336,298.858039 C93.4467185,298.388228 92.7942144,298.009773 92.1155914,297.722664 C91.4369684,297.435556 90.7061574,297.239804 89.9231386,297.135408 L89.9231386,284.607106 C92.428809,284.711502 94.790895,285.233511 97.0094568,286.173144 C99.2280287,287.112766 101.1986,288.365586 102.921252,289.931634 Z M89.9231386,327.046718 L89.9231386,314.518417 C90.7061574,314.414021 91.4369684,314.218269 92.1155914,313.93116 C92.7942144,313.644051 93.4467185,313.265596 94.0731336,312.795785 L102.921252,321.72219 C101.1986,323.288238 99.2280287,324.541058 97.0094568,325.480681 C94.790895,326.420313 92.428809,326.942323 89.9231386,327.046718 Z M104.643893,320.077856 L95.7174782,311.15144 C96.1872895,310.577223 96.5787939,309.924719 96.8920015,309.193888 C97.2052191,308.463067 97.4140208,307.706157 97.5184166,306.923139 L110.046718,306.923139 C109.942323,309.428809 109.407264,311.803944 108.441532,314.048615 C107.475811,316.293276 106.209941,318.303006 104.643893,320.077856 Z" transform="rotate(-15 88.827 305.827)"/>
    <path d="M123.678926,141.609401 L126.600567,141.609401 L126.600567,145.145856 L123.678926,145.145856 C123.289374,149.599193 121.406559,153.39757 118.03042,156.541103 C114.524439,159.815616 110.4991,161.452847 105.954304,161.452847 C101.019957,161.452847 96.7998418,159.684637 93.2938602,156.148163 C89.7878786,152.61169 88.0349065,148.354884 88.0349065,143.377629 C88.0349065,142.329781 87.515512,141.347445 86.476698,140.430582 C85.4378841,139.513719 84.2692401,139.055294 82.9707289,139.055294 C81.6722177,139.055294 80.5035737,139.513719 79.4647598,140.430582 C78.4259458,141.347445 77.9065513,142.329781 77.9065513,143.377629 C77.9065513,148.354884 76.1535792,152.61169 72.6475976,156.148163 C69.141616,159.684637 64.9215012,161.452847 59.9871535,161.452847 C55.4423579,161.452847 51.4170242,159.815616 47.9110376,156.541103 C44.5349021,153.39757 42.6520864,149.599193 42.2625317,145.145856 L39.3408908,145.145856 L39.3408908,141.609401 L42.2625317,141.609401 C42.6520864,137.287041 44.5349021,133.423181 47.9110376,130.017684 C51.287173,126.874156 55.312503,125.30241 59.9871535,125.30241 C64.1423969,125.30241 67.8106441,126.513959 70.9919948,128.937094 C74.1733579,131.360242 76.2834091,134.536464 77.3222231,138.465884 C78.880444,136.894114 80.7632585,136.108247 82.9707289,136.108247 C85.1781993,136.108247 87.0610138,136.894114 88.6192347,138.465884 C89.6580487,134.536464 91.7680999,131.360242 94.949463,128.937094 C98.1308137,126.513959 101.799061,125.30241 105.954304,125.30241 C110.4991,125.30241 114.524439,126.939641 118.03042,130.214154 C121.406559,133.357683 123.289374,137.156069 123.678926,141.609401 Z" transform="rotate(-15 82.97 143.378)"/>
    <path fill-rule="nonzero" d="M287.242357,366.041073 L288.703092,362.944313 L289.287387,364.989343 L290.280687,362.360019 L291.04027,364.405049 L291.916711,361.951013 L293.377447,363.996043 L293.786453,362.24316 L294.838183,364.112902 L295.539336,361.951013 L296.883213,363.528608 L297.17536,361.658866 L298.168661,362.944313 L299.512538,360.899283 L300.096832,362.360019 L302.434009,360.022842 C298.772431,359.010065 294.584989,358.523153 289.871681,358.562106 C280.522972,358.678965 273.297198,361.405671 268.194361,366.742226 C264.143254,365.223061 259.566282,364.132378 254.463444,363.470178 C244.218817,362.106825 236.389273,363.489655 230.974812,367.618668 L232.902983,367.326521 L235.941314,366.274791 L233.311989,368.787257 L238.979644,365.281491 L234.889584,368.787257 L241.024675,365.106202 L237.109903,369.079404 L242.660699,365.106202 L238.979644,369.955845 L244.413582,365.281491 L241.608969,369.780557 L245.58217,365.982644 L244.121435,369.955845 L247.042906,366.274791 L246.283324,369.196263 L248.211495,366.566938 L247.627201,369.663698 L250.081237,367.151232 L248.912648,369.663698 L251.425114,367.326521 L250.665531,369.48841 L253.002709,367.326521 L253.002709,369.371551 L255.339886,367.151232 L255.339886,369.079404 L261.942412,368.787257 C258.047116,369.371551 253.859674,370.637522 249.380084,372.58517 C240.459857,376.519418 234.616913,381.972832 231.851254,388.945411 L230.799524,392.743324 L234.30529,385.731792 L232.727695,391.1073 L236.525608,384.387915 L234.772725,390.698294 L237.811056,384.387915 L236.934614,389.354417 L238.979644,382.518173 L239.154933,388.477976 L240.148233,382.518173 L240.44038,387.309387 L241.199963,381.641732 L242.777558,386.316087 L242.777558,380.590002 L244.121435,385.147498 L244.705729,380.473143 L245.699029,383.803621 L246.458612,378.837119 L247.451912,381.81702 L251.425114,377.843819 L252.593702,378.72026 C250.840819,380.317331 249.048984,382.576603 247.218195,385.498075 C243.59557,391.302065 241.686875,397.515061 241.49211,404.137064 L242.076404,406.474241 L243.244993,399.170562 L243.946146,403.669628 L244.238293,395.489508 L245.58217,401.507739 L245.58217,395.19736 L247.627201,399.462709 L246.458612,393.035471 L251.132967,397.125532 L248.328354,391.574736 L252.009408,395.080502 L250.373384,388.185828 L253.587003,392.15903 L252.009408,386.608234 L254.93088,389.354417 L253.587003,385.264357 L256.099468,388.477976 L255.047739,384.095768 L256.97591,386.432945 L256.391616,381.641732 L259.605234,383.978909 L258.436646,380.180996 L260.481676,381.057438 L260.189529,378.135966 L261.474976,378.135966 L261.182829,376.090936 L263.227859,375.214494 L264.980742,374.162764 C263.188906,377.045283 261.806076,380.726337 260.832253,385.205927 C258.845652,394.165107 259.838952,402.656851 263.812154,410.68116 L266.032472,412.317184 L263.987442,406.883247 L266.908914,409.103566 L263.695295,404.253923 L267.025773,406.298953 C266.363572,405.441988 265.740325,404.585023 265.156031,403.728058 C263.948489,402.092034 263.461577,401.351927 263.695295,401.507739 L267.493208,404.429211 L263.227859,399.579568 L268.077502,401.215592 C267.142631,400.670251 266.227237,400.105433 265.331319,399.521139 C263.578436,398.391503 262.83833,397.826685 263.111,397.826685 C263.578436,397.826685 265.331319,398.469409 268.36965,399.754856 L262.526706,395.956943 L268.661797,397.826685 L263.403148,394.788354 L268.36965,396.658096 C267.395826,395.995896 266.441478,395.353172 265.506607,394.729925 C263.675818,393.405525 262.916236,392.743324 263.227859,392.743324 C263.734248,392.743324 265.389748,393.171807 268.194361,394.028772 C267.220537,393.444477 266.285666,392.860183 265.389748,392.275889 C263.597912,391.1073 262.83833,390.523006 263.111,390.523006 C263.578436,390.523006 265.428701,390.873582 268.661797,391.574736 L263.812154,388.06897 L270.122533,390.114 L263.987442,385.147498 L270.122533,388.06897 L265.448178,384.095768 L270.41468,385.439645 C269.557715,384.738492 268.70075,384.037339 267.843785,383.336185 C266.20776,381.933879 265.506607,381.213249 265.740325,381.174296 C266.129855,381.096391 267.59059,381.252202 270.122533,381.641732 L265.740325,378.252825 L268.953944,378.544972 L266.441478,376.383083 L269.947244,377.084236 L267.201061,374.57177 L268.603367,374.980776 C269.771956,375.68193 270.979498,377.084236 272.225992,379.187696 C276.238147,385.887604 279.880248,398.333073 283.152296,416.524104 L284.262455,428.443708 C284.924656,437.286029 285.17785,444.02489 285.022038,448.660292 L292.793153,448.952439 C292.520482,442.36939 291.877758,435.046234 290.864981,426.982972 C288.800475,410.817496 285.84005,398.995274 281.983708,391.516306 L273.920446,375.740359 L274.50474,376.266224 C275.011128,376.694707 275.49804,377.220571 275.965476,377.843819 C276.744535,378.817643 277.426212,379.265602 278.010506,379.187696 L278.185794,381.232726 L279.354383,379.596702 L279.295954,382.401315 L280.639831,380.940579 L280.464542,383.86205 L281.983708,380.940579 L281.224125,384.855351 L282.860149,381.641732 L282.100566,385.731792 L284.145597,382.401315 L283.444443,387.484675 L285.197326,383.394615 L284.437744,387.776822 L286.365915,383.86205 L285.606332,388.536405 L287.359215,385.439645 L287.242357,390.114 L288.703092,387.075669 L288.410945,390.990441 L289.98854,387.367816 L289.871681,392.042171 L291.449276,389.412847 L291.449276,392.334318 L292.325717,390.114 L293.669594,391.574736 C294.020171,390.289288 293.552735,388.458499 292.267288,386.082369 C289.65744,381.408014 284.281932,376.480465 276.140764,371.299722 L278.477942,370.54014 L280.230825,372.234593 L280.347683,371.416581 L281.399413,372.643599 L281.69156,371.007575 L282.684861,373.6369 L282.977008,371.124434 L284.320885,374.338053 L284.729891,371.708728 L285.489474,375.097635 L285.89848,371.591869 L286.482774,375.214494 L287.826651,372.176164 L288.235657,375.506641 L289.287387,372.176164 L289.579534,375.68193 L290.572834,373.344752 L290.864981,375.506641 L292.03357,372.877317 L292.910012,376.090936 L293.494306,373.052605 L294.838183,376.266224 L296.006772,373.6369 L297.584366,376.383083 C297.89599,374.863918 297.214313,373.325276 295.539336,371.767158 C292.150429,368.650921 285.431044,367.034374 275.381182,366.917515 L279.179095,364.405049 L280.522972,365.573638 L282.684861,363.528608 L282.74329,365.865785 L285.606332,362.535307 L285.138897,365.748926 L287.94351,363.411749 L287.242357,366.041073 Z" transform="rotate(30 266.617 403.756)"/>
    <path d="M91.051466,446.685611 C92.3211735,446.685611 93.3369394,443.028853 97.8063095,443.028853 C102.072526,443.028853 105.780072,447.142705 110.60496,447.142705 C114.210929,447.142705 117.359804,445.21275 120.914985,445.009597 C122.286269,445.82221 124.774895,446.837975 128.431653,446.837975 C134.577037,446.837975 137.827488,445.365115 137.827488,445.365115 C138.030641,445.263538 139.452713,444.60329 140.773209,444.60329 C141.484245,444.60329 142.195281,444.654079 142.906317,444.806444 C144.226813,445.21275 146.867805,445.720633 150.88008,445.720633 C154.739991,445.720633 157.228617,444.654079 158.498325,443.841466 C161.951929,443.689101 165.050015,442.368605 168.402042,442.368605 C172.515895,442.368605 176.325017,445.619056 180.743599,445.619056 C184.501933,445.619056 188.209478,443.282795 188.209478,441.809934 C188.209478,441.251263 187.904749,440.895745 187.346077,440.895745 C186.025582,440.895745 184.908239,443.587524 180.743599,443.587524 C176.325017,443.587524 172.668259,440.337073 168.402042,440.337073 C165.456321,440.337073 162.81533,441.302051 160.072762,441.708357 C158.092018,439.168943 152.759247,431.906216 152.759247,429.722319 C152.65767,424.592701 149.762737,420.580426 149.762737,416.263421 C149.762737,411.387744 153.419495,408.949906 157.482559,408.899118 L157.584135,408.899118 C158.142806,408.899118 158.498325,408.442023 158.498325,407.883352 C158.498325,407.32468 158.142806,406.867586 157.584135,406.867586 C152.352941,406.867586 147.731206,410.01646 147.731206,416.263421 C147.731206,421.139097 150.676927,425.100584 150.727715,429.671531 L150.727715,429.773108 C150.524562,432.617252 142.550799,440.844956 140.773209,442.571759 C139.757443,442.571759 138.6401,442.927277 137.979853,443.181218 C135.491226,440.641803 128.533229,433.328288 128.533229,430.788874 C128.533229,425.760832 131.123432,422.25644 131.123432,416.517362 C131.123432,410.118037 127.974558,408.340446 124.368589,408.340446 C120.305525,408.340446 117.512169,412.200357 117.512169,413.927159 C117.512169,414.48583 117.76611,414.892137 118.37557,414.892137 C119.797642,414.892137 119.950007,410.371978 124.368589,410.371978 C126.857215,410.371978 129.091901,411.743262 129.091901,416.517362 C129.091901,422.510381 126.501697,426.268715 126.501697,430.788874 C126.501697,433.125135 120.254737,441.403628 118.832665,443.282795 C115.937732,443.892254 113.245952,445.111173 110.60496,445.111173 C105.881649,445.111173 102.681986,440.997321 97.8063095,440.997321 C94.0479756,440.997321 90.2388533,443.943043 90.2388533,445.720633 C90.2388533,446.126939 90.4420065,446.685611 91.051466,446.685611 Z M127.060369,460.855545 C124.673319,460.855545 123.708341,462.937866 123.708341,464.867821 C123.708341,467.965907 125.23199,469.489556 127.517463,469.489556 C132.748658,469.489556 134.47546,471.267146 134.47546,476.447553 C134.47546,480.002733 137.776699,480.053522 140.519267,480.053522 C143.71893,480.053522 146.309133,479.79958 146.309133,476.041246 C146.309133,470.810052 150.422985,468.981673 152.911612,468.981673 C155.704968,468.981673 157.634923,467.86433 157.634923,464.30915 C157.634923,462.785501 157.7365,459.992144 154.841567,459.992144 C151.286386,459.992144 146.055192,461.566582 141.382668,461.566582 C136.913298,461.566582 130.869491,460.855545 127.060369,460.855545 Z" transform="rotate(15 139.224 443.46)"/>
    <path d="M293.948256,228 C285.343082,228 280,233.286839 280,244.647919 C280,257.246344 292.204724,270.688414 301.428571,279.799775 C302.384702,280.755906 304.015748,281.824522 305.646794,281.824522 C308.7964,281.824522 311.102362,278.224972 312.845894,276.256468 C320.494938,267.595051 330,256.683915 330,244.029246 C330,237.055118 325.275591,232.274466 319.145107,232.274466 C312.564679,232.274466 308.965129,236.830146 307.671541,242.454443 C306.602925,233.568054 302.497188,228 293.948256,228 Z"/>
    <path d="M313.653603,96.0166726 C313.653603,96.0166726 311.127274,124.20257 311.127274,134.307883 C311.127274,142.530834 310.483308,153.478257 310.483308,153.478257 C310.483308,154.221294 310.087022,155.11294 308.700018,155.11294 C274.966105,155.11294 250.792611,133.019951 250.792611,97.1064613 C250.792611,96.214816 251.188898,95.57085 252.774045,95.4222424 C252.774045,95.4222424 278.086864,95.6203858 281.752516,95.6203858 C287.052852,95.6203858 312.266599,94.1838462 312.266599,94.1838462 C313.455459,94.0847745 313.752674,94.9268839 313.653603,96.0166726 Z M281.405765,97.6018198 C279.226188,97.6018198 264.613113,97.5027481 257.182736,97.4036764 C257.72763,122.221136 275.85775,147.583491 308.650482,148.4256 C308.749554,144.264589 308.898161,138.567966 308.898161,133.862061 C308.79909,117.614302 311.622633,96.214816 311.622633,96.214816 C311.622633,96.214816 287.399603,97.6018198 281.405765,97.6018198 Z M252.774045,97.3541405 C252.774045,130.29548 274.817498,152.685683 308.501875,153.08197 C308.501875,152.48754 308.55141,151.546359 308.600946,150.407034 C273.628637,149.564925 255.69666,123.162317 255.201302,97.4036764 C253.764762,97.3541405 252.774045,97.3541405 252.774045,97.3541405 Z M286.706101,100.722578 C286.706101,102.060046 284.427452,103.942408 282.396482,103.942408 C281.059015,103.942408 279.91969,103.199371 279.91969,101.911439 C279.91969,100.375827 281.455301,99.484182 282.941377,99.484182 C284.823739,99.484182 286.706101,100.128148 286.706101,100.722578 Z M302.557573,120.784597 C302.953859,120.784597 303.795969,122.964174 303.795969,124.400714 C303.795969,125.688646 302.953859,127.521472 301.319177,127.521472 C300.179852,127.521472 299.288207,126.382148 299.288207,125.193287 C299.288207,122.815567 301.566856,120.784597 302.557573,120.784597 Z M291.164328,112.908397 C291.312935,112.908397 292.45226,112.908397 292.45226,113.35422 C292.45226,114.889831 291.263399,118.060125 288.98475,118.060125 C287.944497,118.060125 286.656565,117.465695 286.656565,116.078691 C286.656565,114.047721 289.133358,112.908397 291.164328,112.908397 Z" transform="rotate(-15 282.232 124.644)"/>
  </g>
</svg>
