<svg xmlns="http://www.w3.org/2000/svg" width="108" height="78" viewBox="0 0 108 78">
  <path fill="#2A9CCE" fill-opacity=".203" fill-rule="evenodd" d="M53.3413081,7.82486131 C49.9615389,9.29432618 46.1226195,11.296442 41.8244348,13.8312689 C37.52625,16.3660958 34.0914274,18.8090445 31.5198639,21.1601883 C28.5809341,23.8052251 25.917569,26.7808468 23.5296886,30.0871428 C21.1418082,33.3934388 19.2866366,37.177254 17.9641182,41.4387022 L24.1358398,41.4387022 C30.528012,41.4387022 35.3037012,42.6509925 38.4630507,45.0756095 C41.6224001,47.5002266 43.2020512,50.8799451 43.2020512,55.2148664 C43.2020512,60.798833 40.8509427,65.8867787 36.1486551,70.4788565 C31.4463675,75.0709342 25.8624847,77.3669386 19.3968393,77.3669386 C12.5638277,77.3669386 7.62282615,75.511767 4.57368654,71.8013682 C1.52454693,68.0909694 0,63.2969122 0,57.4190527 C0,45.8837535 4.86752937,34.8261962 14.6027341,24.2460491 C24.3379389,13.6659021 36.2220578,5.58396651 50.2554473,0 L53.3413081,7.82486131 Z M107.6745,7.82486131 C104.294731,9.29432618 100.455811,11.296442 96.1576267,13.8312689 C91.8594419,16.3660958 88.4246193,18.8090445 85.8530558,21.1601883 C82.9141261,23.8052251 80.2507609,26.7808468 77.8628805,30.0871428 C75.4750001,33.3934388 73.6198285,37.177254 72.2973102,41.4387022 L78.4690318,41.4387022 C84.8612039,41.4387022 89.6368931,42.6509925 92.7962426,45.0756095 C95.9555921,47.5002266 97.5352431,50.8799451 97.5352431,55.2148664 C97.5352431,60.798833 95.1841346,65.8867787 90.481847,70.4788565 C85.7795594,75.0709342 80.1956767,77.3669386 73.7300312,77.3669386 C66.8970196,77.3669386 61.9560181,75.511767 58.9068785,71.8013682 C55.8577389,68.0909694 54.3331919,63.2969122 54.3331919,57.4190527 C54.3331919,45.8837535 59.2007213,34.8261962 68.9359261,24.2460491 C78.6711308,13.6659021 90.5552497,5.58396651 104.588639,0 L107.6745,7.82486131 Z"/>
</svg>
