<svg xmlns="http://www.w3.org/2000/svg" width="138" height="125" viewBox="0 0 138 125">
  <path fill="#FFFFFF" fill-rule="evenodd" stroke="#0A4B5B" stroke-width="4" d="M83.5504886,55.7703457 L10.8322476,5.71499633 C7.94189667,3.87565759 5.47856559,3.54723127 3.44218367,4.72964169 C1.40579873,5.91205212 0.38762215,8.342533 0.38762215,12.0211853 L0.38762215,108.978827 C0.38762215,112.657457 1.40579873,115.120785 3.44218367,116.368891 C5.47856559,117.617 7.94189667,117.25571 10.8322476,115.285016 L83.5504886,65.4267101 C83.5504886,65.4267101 84.0103107,64.966888 84.9299548,64.0472439 C85.8496242,63.1275745 86.3094463,61.9451641 86.3094463,60.4999874 C86.3094463,59.0548359 85.8496242,57.9052681 84.9299548,57.0513092 C84.0103107,56.1973251 83.5504886,55.7703457 83.5504886,55.7703457 Z M113.899023,7.10542736e-15 L123.949524,7.10542736e-15 C126.708482,7.10542736e-15 129.073277,0.328451544 131.043987,0.985354632 C133.014671,1.6422325 134,3.35015025 134,6.10910791 L134,115.087948 C134,117.846918 133.014671,119.521984 131.043987,120.113192 C129.073277,120.7044 126.708482,121 123.949524,121 L113.899023,121 C111.14004,121 108.775244,120.7044 106.80456,120.113192 C104.833876,119.521984 103.848522,117.846918 103.848522,115.087948 L103.848522,6.10910791 C103.848522,3.35015025 104.833876,1.6422325 106.80456,0.985354632 C108.775244,0.328451544 111.14004,7.10542736e-15 113.899023,7.10542736e-15 Z" transform="translate(2 2)"/>
</svg>
