<svg xmlns="http://www.w3.org/2000/svg" width="365" height="27" viewBox="0 0 365 27">
  <path fill="#2A9CCE" fill-rule="evenodd" d="M218.897945,291.520647 L221.937784,291.520647 C232.070584,291.520647 237.542296,284.529016 237.542296,276.017464 L237.542296,125.770457 C237.542296,118.57617 237.542296,115.232346 243.520647,113.50977 L243.520647,105.504858 C237.542296,103.782282 237.542296,100.438458 237.542296,93.2441708 L237.542296,-57.9761695 C237.542296,-66.4877211 232.070584,-73.4793527 221.937784,-73.4793527 L218.897945,-73.4793527 C218.087321,-73.4793527 217.479353,-72.8713847 217.479353,-72.0607608 L217.479353,-67.602329 C217.479353,-66.791705 218.087321,-66.1837371 218.897945,-66.1837371 L222.039112,-66.1837371 C226.598872,-66.1837371 229.638712,-62.9412412 229.638712,-58.2801535 L229.638712,93.9534668 C229.638712,102.971658 230.24668,107.632746 236.32636,109.45665 C230.24668,111.381882 229.638712,116.04297 229.638712,125.061161 L229.638712,276.321448 C229.638712,280.982536 226.598872,284.225032 222.039112,284.225032 L218.897945,284.225032 C218.087321,284.225032 217.479353,284.833 217.479353,285.643624 L217.479353,290.102055 C217.479353,290.912679 218.087321,291.520647 218.897945,291.520647 Z" transform="rotate(90 254.5 37.02)"/>
</svg>
