<svg xmlns="http://www.w3.org/2000/svg" width="74" height="75" viewBox="0 0 74 75"><g fill="#2A9CCE" fill-rule="evenodd"><path d="M45.892 11.703c-.455-1.047-2.318-.952-1.803.472.419 1.4 2.39.867 1.803-.472M64 55.14c.001-.6-2.201-1.576-2.75-.927-1.274 1.566 2.747 2.607 2.75.927m-11.448 9.982a4.208 4.208 0 0 1-.076.046c-1.18.75.014 4.394 1.627 3.757 2.02-.799.243-4.659-1.55-3.803M63 64c.158.622.679 1.277.973.878.202-.3-.792-.79-.973-.878M29.196 9.11c-.525.59.104 2.682.728 1.57.28-.445-.264-2.123-.728-1.57M11.052 31.339c-.278.59.632 1.003.899.27.258-.655-.57-.8-.86-.34-.034.075-.044.086-.039.07M21.533 41c-.972 0-1.533.356-1.533 1.41v1.98c0 1.211.577 1.61 1.467 1.61C22.62 46 23 45.33 23 44.318v-1.923C23 41.342 22.44 41 21.533 41M46.5 41c-1.187 0-1.5.7-1.5 1.916v1.168C45 45.3 45.313 46 46.5 46s1.5-.699 1.5-1.916v-1.168C48 41.7 47.687 41 46.5 41m-24.017-7c1.22 0 1.517-.628 1.517-1.696V29h-1.412C21.523 29 21 29.499 21 30.367v1.98C21 33.53 21.489 34 22.483 34m24.05 0c.89 0 1.467-.399 1.467-1.61v-1.98c0-1.054-.56-1.41-1.533-1.41-.907 0-1.467.342-1.467 1.395v1.923C45 33.33 45.379 34 46.533 34"/><path d="M57.447 48.59H55.38v-5.483c0-1.147-.467-1.616-1.327-1.616-.8 0-1.432.393-1.432 1.541v5.558h-2.065v-6.147c0-.614-.35-.755-.972-.808.13.427.197.925.197 1.502v5.181c0 2.684-1.992 3.018-3.59 3.035H43.33c-1.41 0-3.296 0-3.296-3.095v-5.56c-.178.002-.377.001-.6.001H37.15c0-.8-.453-1.208-1.357-1.208-.784 0-1.327.302-1.327.936 0 1.859 4.78-.286 4.78 3.172 0 1.95-1.523 3.036-3.438 3.036-1.82 0-3.031-.854-3.332-2.192-.25 1.408-1.36 2.181-3.397 2.181h-3.326c-1.07 0-2.081-.109-2.503-1.06-.543.588-1.116 1.071-2.353 1.071-1.748 0-2.924-.966-2.924-3.126v-2.764c0-2.054 1.251-3.097 3.347-3.097.573 0 1.025.076 1.462.242v-2.93h2.066v8.881c0 .65.211.77.905.816l.072-.002c-.131-.428-.198-.929-.198-1.509v-2.024c0-2.234 1.116-3.474 3.452-3.474 1.941 0 3.037.743 3.354 2.37.296-1.569 1.654-2.37 3.33-2.37 1.264 0 2.254.451 2.85 1.19h.343c.802.01 1.077-.394 1.077-1.084v-.229c.703 0 1.706-.323 2.066-1.136v9.869c0 1.212.7 1.253 1.389 1.253h2.86c.783 0 1.369-.076 1.369-1.253v-.544c-.407.12-.874.166-1.387.166-2.337 0-3.452-1.072-3.452-3.474v-1.27c0-2.34 1.115-3.472 3.452-3.472h3.095c1.07 0 2.051.167 2.443.952.693-.695 1.57-.968 2.64-.968 1.84 0 2.94 1.043 2.94 3.036v5.906zm-38.55-18.587c0-1.994 1.69-3.02 3.438-3.02h3.287v6.192c0 .649.21.77.904.815h.965v-4.213c0-.651-.392-.772-1.086-.817v-1.978c1.07 0 2.051.166 2.443.951.693-.695 1.522-.95 2.593-.95 1.84 0 2.94 1.041 2.94 3.035l-.002 5.573c0 1.213.7 1.253 1.39 1.253h2.867c.784 0 1.372-.075 1.372-1.253v-.543c-.407.12-.875.166-1.387.166-2.337 0-3.453-1.073-3.453-3.475v-4.652h2.08v4.547c0 1.103.287 1.736 1.373 1.736 1.085 0 1.372-.633 1.372-1.736v-4.547c0-2.34.46-2.794 2.86-2.794h2.065v2.93c.436-.166.889-.24 1.462-.24 2.096 0 3.347 1.041 3.347 3.095v2.765c0 2.16-1.176 3.126-3.422 3.126-2.261 0-3.453-.967-3.453-3.126V25.98c-.69 0-.779.138-.779 1.106v8.565c0 3.026-1.813 3.035-3.442 3.035h-2.863c-1.409 0-3.452 0-3.452-3.096v-5.15c0-1.148-.468-1.616-1.327-1.616-.8 0-1.432.392-1.432 1.54v5.573h-3.031c-1.07 0-2.08-.09-2.502-1.042-.438.484-1.01 1.073-2.171 1.073-1.855 0-2.955-1.043-2.955-3.037v-2.93zm31.61.452c0-2.34 1.115-3.473 3.452-3.473 2.337 0 3.452 1.072 3.452 3.473V32.6c0 2.402-1.115 3.474-3.452 3.474-2.337 0-3.453-1.072-3.453-3.474v-2.145zM72.622 38.6c-.654-.193-2.398-.244-3.585-.015-1.187.23-1.926.164-2.677-.039-.874-.236-2.88-1.167-2.358-1.908.523-.74 2.371-1.597.382-2.535-.845-.505-1.638-1.053-1.45-2.257.159-1.014.884-1.948 1.625-2.345 1.109-.697 3.083-.236 4.141-1.696.56-.672-1.483-1.42-3.024-.36-1.54 1.06-2.153 1.015-3.41.909-.63-.054-1.182-.501-1.263-1.098-.084-.63.19-1.106.845-1.375.23-.094.604-.293.692-.763.088-.47-.446-.792-1.118-.858-.671-.066-1.127.041-1.684-.056-1.144-.2-1.767-1.902-1.126-2.878.878-1.337 1.658-2.813 4.586-4.793 2.928-1.98 3.124-3.737 2.3-3.79-1.288-.084-3.116 2.422-4.533 3.945-1.418 1.523-2.654 2.177-3.759 2.722-1.105.544-2.187-.005-2.288-1.18-.03-.352-.02-.72-.129-1.05-.373-1.136-.935-1.381-2.17-1.027-1.65.5-2.094.197-2.581-.763-.646-1.274-.387-2.33.097-3.542.236-.59.831-1.389.22-2.047-.557-.598-1.465-.22-1.763.29-.407.7-.292 1.478-.424 2.276-.196 1.18-.836 2.082-2.014 2.668-1.019.507-2.378.252-3.128-.597-2.259-2.463-2.271-5.644-2.224-6.683.093-2.04 1.106-6.186.323-7.312-.176-.272-.715-.465-1.074-.441-.55.036-.885.545-.907 1.035-.077 1.706.44 6.163.336 8.13-.105 1.965-.684 3.774-1.59 4.41-.657.46-1.422.57-1.99.201a3.767 3.767 0 0 1-.584-.483c-1.092-1.075-1.564-1.177-2.967-.554-1.237.55-3.351-.374-4.367-2.367-.651-1.28-.93-3.719-1.482-4.286-.553-.568-1.63-.283-2.104.49-.474.773-.095 1.955.624 2.603.72.649 1.3 1.489 2.037 2.684.737 1.196.29 2.532-.24 3.616-.48.986-1.73.372-2.681-.166-.926-.524-1.792-.303-2.159.65-.316.821.17 1.891-1.322 1.546-2.674-.62-3.552-1.91-5.423-3.528-1.122-.971-2.503-2.613-3.241-1.746-.68.797.787 2.06 1.807 2.713a11.297 11.297 0 0 1 3.253 3.195c.566.859.817 1.708.202 2.173-.396.3-1.17.6-1.856.192-.893-.532-1.977-.279-2.27.194-.334.538.251 1.398 1.19 1.719 1.007.344 1.752 1.437 1.777 2.58.008.372-.045.99-.618 1.124l-.008.016c-1.834.424.55 1.924-2.23 2.215-1.329.081-1.773-.065-3.302-.823-1.53-.757-2.522.674-2.348 1.261.254.86 1.667 1.002 2.645.736 1.268-.344 3.368.983 3.72 1.706.353.722-.193 1.763-.97 2.674-.778.91-1.663 1.084-2.638 1.196-1.22.139-2.638-.114-4.192-.203-1.555-.088-5.296-1.414-6.084.155-.486.97 1.653 1.603 3.33 1.642 2.292.052 4.51-.436 5.947.136.818.325 1.529.7 2.096 1.376.66.784.81 3.696.215 4.534-.518.731-.555 1.33.439 1.615 1.02.292 1.684 1.32 1.341 2.277-.192.537-.84.93-1.316 1.351-.69.61-1.587.72-2.447.943-.812.212-3.04 2.02-.477 2.662.905.158 1.563-.353 2.175-.93 1.168-1.102 3.406-1.683 4.829-.9.563.31.639.898.184 1.424-.636.735-.837 1.603-.323 2.197 1.18 1.16-2.422 3.042-3.677 3.728-1.432.784-2.846 1.65-3.804 3.018-.946 1.245-.345 2.482.388 2.41.91-.088 1.503-.659 2.132-1.2 1.282-1.102 1.947-2.014 4.004-3.613 2.057-1.6 3.743-2.122 5.493-1.411 1.75.71.63 2.677 1.661 4.25.252.383.46.913 1.325.76.864-.154 1.472-1.903 2.96-.763 1.89 1.523-.17 5.25-.827 6.439-.673 1.216-1.882 2.944-2.221 3.8-.34.855-1.568 3.323-.072 3.753 1.216.35 3.042-5.218 3.681-6.81.639-1.591 2.395-3.872 3.732-4.025.508-.215.826.14 1.008.584.607 1.817 1.125 1.196 1.47.404.205-.309.388-.934.671-1.487.717-.933 1.625.113 1.773.84.442 1.234.419 1.694.093 3.345-.326 1.65 1.345 2.202 1.873 1.879.774-.473.398-1.783.002-2.7-.395-.917-.063-2.408.549-2.937.611-.529 1.77-1.144 2.5-1.107 1.25.065 2 .772 2.374 1.664.468 1.116 1.163 3.393 1.409 4.882.246 1.488.028 5.578 1.78 5.898 1.082.198 1.017-2.116.598-3.712-.572-2.182-1.452-4.033-1.417-5.555.043-1.9 1.095-2.643 1.311-2.833.81-.71 1.67.606 2.645-.132.511-.386.775-1.42 1.068-2.022.611-1.255 1.448-1.496 2.826-1.287 2.372-.053 3.774 3.05 4.34 4.18.4.802.85 1.643 1.492 2.249 2.879 2.8 2.759-.299 2.68-.792-.168-1.032-.79-1.816-1.508-2.523-.728-.717-1.77-1.44-2.908-2.687-1.138-1.247-1.71-3.682-1.3-4.613.41-.93.972-1.385 1.875-1.278.903.107 2.456-.73 2.505-1.959.019-.475-.066-.955-.087-1.43-.096-2.223 4.153-.8 5.055-.188 1.863 1.264 3.04.524 3.12-.11.082-.633-.406-1.189-.967-1.444-1.461-.664-3.747-.795-4.889-1.927-.629-.623-.869-1.118-.987-2.054-.123-.975.578-1.653 1.387-2.069.463-.237.61-.585.487-1.077-.195-.772.291-1.673 1.103-1.835.81-.162 1.53-.188 2.41-.01 1.041.12 3.826.635 4.561.652.736.016 1.939-.177 2.195-.534.335-.467-.705-1.218-1.312-1.398z"/><path d="M29.524 41C28.305 41 28 41.743 28 43l3-.019C31 41.673 30.615 41 29.524 41M54.5 34c1.187 0 1.5-.586 1.5-1.606v-1.788c0-1.02-.313-1.606-1.5-1.606-1.186 0-1.5.587-1.5 1.606v1.788c0 1.02.314 1.606 1.5 1.606M32.599 44v1.263H28v.058c0 1.066.273 1.679 1.308 1.679.862 0 1.25-.387 1.35-.97h3.813c.043.598.46.97 1.408.97.79 0 1.121-.409 1.121-.832 0-1.43-3.612-.026-4.401-2.168"/></g></svg>